# xmcd
#
# Track frame offsets:
# 150
# 11332
# 35153
# 52972
# 75685
# 93285
# 120563
# 156311
# 184332
# 196139
#
# Disc length: 2811 seconds
#
# Revision: 0
# Processed by: cddbd v1.4PL0 Copyright (c) Steve Scherf et al.
# Submitted via: Audion 3.0.2 (http://www.panic.com/audion/)
#
DISCID=780af90a
DTITLE=Roman Evening - Tiny Ladies
DYEAR=1900
DGENRE=
TTITLE0=tiny ladies (theme)
TTITLE1=casework
TTITLE2=hook of doubts
TTITLE3=acid lines
TTITLE4=king's theme
TTITLE5=song for the ashes
TTITLE6=owls
TTITLE7=changed by your face
TTITLE8=tiny ladies (outro)
TTITLE9=credits
EXTD=
EXTT0=
EXTT1=
EXTT2=
EXTT3=
EXTT4=
EXTT5=
EXTT6=
EXTT7=
EXTT8=
EXTT9=
PLAYORDER=
